<mxfile host="app.diagrams.net" agent="Mozilla/5.0 (Macintosh; Intel Mac OS X 10_15_7) AppleWebKit/537.36 (KHTML, like Gecko) Chrome/133.0.0.0 Safari/537.36" version="26.0.12">
  <diagram name="페이지-1" id="rnWNeppUsntsRS8bI7yD">
    <mxGraphModel dx="816" dy="439" grid="1" gridSize="10" guides="1" tooltips="1" connect="1" arrows="1" fold="1" page="1" pageScale="1" pageWidth="827" pageHeight="1169" math="0" shadow="0">
      <root>
        <mxCell id="0" />
        <mxCell id="1" parent="0" />
        <mxCell id="C6duQHap27jdDPHC_Jbk-1" value="타겟 서버 [Promtail]" style="rounded=0;whiteSpace=wrap;html=1;" vertex="1" parent="1">
          <mxGeometry x="120" y="130" width="120" height="60" as="geometry" />
        </mxCell>
        <mxCell id="C6duQHap27jdDPHC_Jbk-7" value="" style="rounded=0;whiteSpace=wrap;html=1;" vertex="1" parent="1">
          <mxGeometry x="510" y="240" width="450" height="220" as="geometry" />
        </mxCell>
        <mxCell id="C6duQHap27jdDPHC_Jbk-8" value="Loki를 통한 API" style="rounded=0;whiteSpace=wrap;html=1;" vertex="1" parent="1">
          <mxGeometry x="520" y="280" width="120" height="60" as="geometry" />
        </mxCell>
        <mxCell id="C6duQHap27jdDPHC_Jbk-10" value="&lt;meta charset=&quot;utf-8&quot;&gt;&lt;span style=&quot;color: rgb(0, 0, 0); font-family: Helvetica; font-size: 12px; font-style: normal; font-variant-ligatures: normal; font-variant-caps: normal; font-weight: 400; letter-spacing: normal; orphans: 2; text-align: center; text-indent: 0px; text-transform: none; widows: 2; word-spacing: 0px; -webkit-text-stroke-width: 0px; white-space: normal; background-color: rgb(251, 251, 251); text-decoration-thickness: initial; text-decoration-style: initial; text-decoration-color: initial; display: inline !important; float: none;&quot;&gt;Log 분석 Agent&lt;/span&gt;" style="text;html=1;align=center;verticalAlign=middle;whiteSpace=wrap;rounded=0;" vertex="1" parent="1">
          <mxGeometry x="510" y="240" width="140" height="30" as="geometry" />
        </mxCell>
        <mxCell id="C6duQHap27jdDPHC_Jbk-13" value="Loki&lt;div&gt;로그 통합&amp;nbsp;&lt;/div&gt;" style="rounded=0;whiteSpace=wrap;html=1;" vertex="1" parent="1">
          <mxGeometry x="330" y="280" width="120" height="60" as="geometry" />
        </mxCell>
        <mxCell id="C6duQHap27jdDPHC_Jbk-15" value="Log 전처리 작업" style="rounded=0;whiteSpace=wrap;html=1;" vertex="1" parent="1">
          <mxGeometry x="670" y="280" width="120" height="60" as="geometry" />
        </mxCell>
        <mxCell id="C6duQHap27jdDPHC_Jbk-16" value="Chat GPT API를 통한&lt;div&gt;LOG분석&lt;/div&gt;" style="rounded=0;whiteSpace=wrap;html=1;" vertex="1" parent="1">
          <mxGeometry x="820" y="280" width="120" height="60" as="geometry" />
        </mxCell>
        <mxCell id="C6duQHap27jdDPHC_Jbk-17" value="Chat GPT" style="rounded=0;whiteSpace=wrap;html=1;" vertex="1" parent="1">
          <mxGeometry x="1110" y="280" width="120" height="60" as="geometry" />
        </mxCell>
        <mxCell id="C6duQHap27jdDPHC_Jbk-18" value="" style="endArrow=classic;startArrow=classic;html=1;rounded=0;entryX=0;entryY=0.5;entryDx=0;entryDy=0;exitX=1;exitY=0.5;exitDx=0;exitDy=0;" edge="1" parent="1" source="C6duQHap27jdDPHC_Jbk-16" target="C6duQHap27jdDPHC_Jbk-17">
          <mxGeometry width="50" height="50" relative="1" as="geometry">
            <mxPoint x="700" y="430" as="sourcePoint" />
            <mxPoint x="750" y="380" as="targetPoint" />
          </mxGeometry>
        </mxCell>
        <mxCell id="C6duQHap27jdDPHC_Jbk-19" value="" style="endArrow=classic;html=1;rounded=0;exitX=1;exitY=0.5;exitDx=0;exitDy=0;entryX=0;entryY=0.5;entryDx=0;entryDy=0;" edge="1" parent="1" source="C6duQHap27jdDPHC_Jbk-8" target="C6duQHap27jdDPHC_Jbk-15">
          <mxGeometry width="50" height="50" relative="1" as="geometry">
            <mxPoint x="700" y="430" as="sourcePoint" />
            <mxPoint x="750" y="380" as="targetPoint" />
          </mxGeometry>
        </mxCell>
        <mxCell id="C6duQHap27jdDPHC_Jbk-20" value="" style="endArrow=classic;html=1;rounded=0;exitX=1;exitY=0.5;exitDx=0;exitDy=0;entryX=0;entryY=0.5;entryDx=0;entryDy=0;" edge="1" parent="1" source="C6duQHap27jdDPHC_Jbk-15" target="C6duQHap27jdDPHC_Jbk-16">
          <mxGeometry width="50" height="50" relative="1" as="geometry">
            <mxPoint x="650" y="320" as="sourcePoint" />
            <mxPoint x="680" y="320" as="targetPoint" />
          </mxGeometry>
        </mxCell>
        <mxCell id="C6duQHap27jdDPHC_Jbk-22" value="" style="endArrow=classic;startArrow=classic;html=1;rounded=0;exitX=1;exitY=0.5;exitDx=0;exitDy=0;entryX=0;entryY=0.5;entryDx=0;entryDy=0;" edge="1" parent="1" source="C6duQHap27jdDPHC_Jbk-13" target="C6duQHap27jdDPHC_Jbk-8">
          <mxGeometry width="50" height="50" relative="1" as="geometry">
            <mxPoint x="720" y="370" as="sourcePoint" />
            <mxPoint x="770" y="320" as="targetPoint" />
          </mxGeometry>
        </mxCell>
        <mxCell id="C6duQHap27jdDPHC_Jbk-23" value="Log 분석 file" style="shape=note;whiteSpace=wrap;html=1;backgroundOutline=1;darkOpacity=0.05;" vertex="1" parent="1">
          <mxGeometry x="840" y="360" width="80" height="90" as="geometry" />
        </mxCell>
        <mxCell id="C6duQHap27jdDPHC_Jbk-25" value="타겟 서버 [Promtail]" style="rounded=0;whiteSpace=wrap;html=1;" vertex="1" parent="1">
          <mxGeometry x="120" y="200" width="120" height="60" as="geometry" />
        </mxCell>
        <mxCell id="C6duQHap27jdDPHC_Jbk-26" value="타겟 서버 [Promtail]" style="rounded=0;whiteSpace=wrap;html=1;" vertex="1" parent="1">
          <mxGeometry x="120" y="270" width="120" height="60" as="geometry" />
        </mxCell>
        <mxCell id="C6duQHap27jdDPHC_Jbk-27" value="타겟 서버 [Promtail]" style="rounded=0;whiteSpace=wrap;html=1;" vertex="1" parent="1">
          <mxGeometry x="120" y="340" width="120" height="60" as="geometry" />
        </mxCell>
        <mxCell id="C6duQHap27jdDPHC_Jbk-28" value="타겟 서버 [Promtail]" style="rounded=0;whiteSpace=wrap;html=1;" vertex="1" parent="1">
          <mxGeometry x="120" y="410" width="120" height="60" as="geometry" />
        </mxCell>
        <mxCell id="C6duQHap27jdDPHC_Jbk-29" value="타겟 서버 [Promtail]" style="rounded=0;whiteSpace=wrap;html=1;" vertex="1" parent="1">
          <mxGeometry x="120" y="480" width="120" height="60" as="geometry" />
        </mxCell>
        <mxCell id="C6duQHap27jdDPHC_Jbk-31" value="" style="shape=flexArrow;endArrow=classic;html=1;rounded=0;width=62;endSize=3.67;" edge="1" parent="1">
          <mxGeometry width="50" height="50" relative="1" as="geometry">
            <mxPoint x="270" y="309.5" as="sourcePoint" />
            <mxPoint x="310" y="309.5" as="targetPoint" />
          </mxGeometry>
        </mxCell>
        <mxCell id="C6duQHap27jdDPHC_Jbk-33" value="" style="rounded=0;whiteSpace=wrap;html=1;" vertex="1" parent="1">
          <mxGeometry x="510" y="500" width="450" height="220" as="geometry" />
        </mxCell>
        <mxCell id="C6duQHap27jdDPHC_Jbk-34" value="분석 file을 통한 발송" style="text;html=1;align=center;verticalAlign=middle;whiteSpace=wrap;rounded=0;" vertex="1" parent="1">
          <mxGeometry x="510" y="500" width="140" height="30" as="geometry" />
        </mxCell>
      </root>
    </mxGraphModel>
  </diagram>
</mxfile>
